<?xml version="1.0" encoding="UTF-8"?>
<svg xmlns="http://www.w3.org/2000/svg" xmlns:xlink="http://www.w3.org/1999/xlink" viewBox="0 0 55 55" width="3.4375em" height="3.4375em">
	<defs>
    <style>
      #bg { fill-rule: evenodd; fill: #909d83; }
      #pixel-on { fill-rule: evenodd; fill: #373d30; }
      #pixel-off { fill-rule: evenodd; fill: #839275; }
    </style>
    <g>
      <path id="pixel-on" d ="M1,1h9v9H1V1ZM2,2H9V9H2V2ZM3,3H8V8H3V3Z" />
      <path id="pixel-off" d ="M1,1h9v9H1V1ZM2,2H9V9H2V2ZM3,3H8V8H3V3Z" />
    </g>
  </defs>
  <rect id="bg" x="0" y="0" width="55" height="55" />
  <use xlink:href="#pixel-on" x="11" y="11"/>
  <use xlink:href="#pixel-on" x="22" y="11"/>
  <use xlink:href="#pixel-on" x="33" y="11"/>
  <use xlink:href="#pixel-on" x="11" y="22"/>
  <use xlink:href="#pixel-on" x="22" y="22"/>
  <use xlink:href="#pixel-off" x="33" y="22"/>
  <use xlink:href="#pixel-off" x="11" y="33"/>
  <use xlink:href="#pixel-off" x="22" y="33"/>
  <use xlink:href="#pixel-off" x="33" y="33"/>
</svg>